<svg xmlns="http://www.w3.org/2000/svg" xml:space="preserve" style="enable-background:new 0 0 476 206" viewBox="0 0 476 206"><path d="m179.1 97.3-6.4-9.1c2.1-1.4 8.8-5.7 8.8-17.9 0-2-.2-4.2-1-6.2-1.7-4.2-4.7-4.9-6.6-4.9-3.7 0-5 2.5-5.7 4.3-.5 1.3-.6 1.5-1.8 6.7l-1.5 7c-.9 3.7-1.3 5.5-2 7.3-1.1 2.6-4.6 9.7-14.2 9.7-11 0-18-9.2-18-22.8 0-12.4 6.1-19.2 11.7-23.2L149 57c-2.9 2-8.6 5.7-8.6 15 0 5.8 2.6 10.9 7 10.9 4.9 0 5.9-5.4 6.9-10.6l1.3-6c1.6-7.8 4.8-18.7 17.2-18.7 13.3 0 18.6 12.3 18.6 24.6 0 3.2-.3 6.8-1.3 10.3-1.2 3.7-4 10.5-11 14.8m4.7-53.2h-51.7V33.4h42.7C156.6 14.7 131.1 3 102.9 3 47.7 3.1 2.9 47.9 3 103.1c0 27.1 10.8 51.6 28.4 69.6-1.4-2-2.4-4.2-3-6.2-1-3.5-1-6-1.1-15.9v-47.5h14.9v49c0 3.4-.1 6.7 1 9.7 3 7.7 11.4 8.6 16.1 8.6 2.4 0 8.4-.1 12.8-4 4.4-4 4.4-8.5 4.4-15.1v-48.2h15v50.2c-.1 9-.1 16.5-8.6 23.7-8.1 7.1-18.6 7.8-24 7.8-4.9 0-9.6-.6-14.1-2.1-1.9-.6-3.5-1.4-5.1-2.3C56.9 194.5 79 203 103.1 203c55.2-.1 100-44.9 99.9-100.1 0-22-7.2-42.3-19.2-58.8M238.5 6.2h38.7v193.5h-38.7z"/><path d="M470.7 6.2v193.6" style="fill:none;stroke:#000;stroke-width:1.3656"/><path d="M309.3 25.6c0 1.8 0 2.7-.4 3.7-.7 2.1-3.1 4.8-8.2 4.8-3.3 0-6.9-1.3-8-4.7-.3-1.1-.3-2-.3-4.3V12.7h3.9v12.8c0 1.2 0 1.7.2 2.3.4 1.2 1.5 2.5 4.3 2.5.5 0 3.4 0 4.2-2.4.2-.7.3-1.2.3-2.6V12.7h3.9v12.9zM317.8 18.8v1.7c1.3-2 4-2.2 4.6-2.2 3.1 0 4.8 2 4.8 4.9v10.3h-3.5v-8.3c0-1.6-.4-3.5-2.6-3.5-.4 0-1.1.1-1.9.7-1.1.9-1.4 2.1-1.4 4.7v6.4h-3.6V18.8h3.6zM331.4 16.5v-3.6h3.5v3.6h-3.5zm0 17.1V18.8h3.5v14.8h-3.5zM346.4 33.6h-3.8l-4.8-14.8h3.7l3.1 10.2 3-10.2h3.7l-4.9 14.8zM356.6 26.9c.1.7.7 3.7 4.2 3.7 2.5 0 3.6-1.5 3.9-2l3 1.7c-1.2 1.6-3.3 3.8-7.2 3.8-4.4 0-7.6-3-7.6-7.9 0-5.3 3.6-7.8 7.4-7.8 5.7 0 7.3 4.5 7.3 8.6h-11zm7-2.6c-.1-.7-.5-3.1-3.3-3.1-2.9 0-3.5 2.5-3.6 3.1h6.9zM374.5 18.8v2.1c1.1-2.3 3.7-2.4 4.4-2.4h.3v3.6c-.7 0-3.6 0-4.4 2.7-.3.8-.3 1.6-.3 2.4v6.3H371V18.8h3.5zM391.9 23.4c-.8-1.6-2.3-2.2-4-2.2-.7 0-2.5.2-2.5 1.5 0 1 .9 1.3 3 1.7l2.4.4c2.2.4 4 1.7 4 4.1 0 2.7-2.6 5.1-6.7 5.1s-6.3-1.8-7.1-2.7l2.7-2.2c.7.9 2 1.9 4.3 1.9 2.1 0 2.9-1.1 2.9-1.7 0-.9-.8-1.2-2.2-1.4l-1.8-.3c-1.2-.2-5.1-.9-5.1-4.4 0-2.9 2.8-4.8 6.4-4.8 1.2 0 4.1.2 6.4 2.8l-2.7 2.2zM398.3 16.5v-3.6h3.5v3.6h-3.5zm0 17.1V18.8h3.5v14.8h-3.5zM404.5 18.8h2.2v-5.3h3.6v5.3h3.2v2.5h-3.2v7.3c0 .6 0 1.2.4 1.6.4.4 1.2.4 1.3.4.5 0 1-.1 1.5-.2v3c-.5.1-1.3.2-2.5.2-3.2 0-4.2-1.2-4.2-3.6v-8.8h-2.2v-2.4zM425.4 33.6l-.1-1.2c-1 .8-2.5 1.5-4.3 1.5-3.4 0-5.4-2-5.4-4.5 0-3.2 2.5-4.5 5.3-5 2.2-.4 3.6-.8 4.6-1.1 0-1.1-.3-2.2-2.5-2.2-2.7 0-3 1.5-3 2.2l-3.6-.2c.1-1 .3-4.8 6.5-4.8 4.3 0 6.2 1.6 6.2 4.2v8.6c0 1.1.1 1.4.7 2.4h-4.4zm-3.2-17-3.3-3.9h4.4l1.5 3.9h-2.6zm3.2 9.6c-.6.3-1.5.6-2.8.8-1.6.2-3.3.6-3.3 2 0 1 .7 1.8 2.4 1.8 1.6 0 3.6-.8 3.6-2.7v-1.9zM301.8 65.4V64c-.3.4-1.5 1.9-4.1 1.9-3.1 0-6.6-2.2-6.6-7.5s3.2-8.1 6.7-8.1c1.2 0 3 .4 4 1.7v-7.3h3.5v20.9h-3.5zm-3.4-2.7c1.9 0 3.4-1.6 3.4-4.3 0-2.2-.7-4.8-3.4-4.8-2.2 0-3.6 2-3.6 4.5.1 2 1 4.6 3.6 4.6zM312.7 58.7c.1.7.7 3.7 4.2 3.7 2.5 0 3.6-1.5 3.9-2l3 1.7c-1.2 1.6-3.3 3.8-7.2 3.8-4.4 0-7.6-3-7.6-7.9 0-5.3 3.6-7.8 7.4-7.8 5.7 0 7.3 4.5 7.3 8.6h-11zm7.1-2.6c-.1-.7-.5-3.1-3.3-3.1-2.9 0-3.5 2.5-3.6 3.1h6.9zM327.2 65.4V44.5h3.6v20.9h-3.6zM335.2 65.4V44.5h3.6v20.9h-3.6zM352 65.4l-.1-1.2c-1 .8-2.5 1.5-4.3 1.5-3.4 0-5.4-2-5.4-4.5 0-3.2 2.5-4.5 5.3-5 2.2-.4 3.6-.8 4.6-1.1 0-1.1-.3-2.2-2.5-2.2-2.7 0-3 1.5-3 2.2l-3.6-.2c.1-1 .3-4.8 6.5-4.8 4.3 0 6.2 1.6 6.2 4.2V63c0 1.1.1 1.4.7 2.4H352zm0-7.3c-.6.3-1.5.6-2.8.8-1.6.2-3.3.6-3.3 2 0 1 .7 1.8 2.4 1.8 1.6 0 3.6-.8 3.6-2.7v-1.9zM305.4 82.5c-.7-1.1-2.2-3.1-5.4-3.1-.9 0-3.9.3-3.9 2.5 0 1.6 1.6 2 3.8 2.5l2.2.5c3.3.7 6.8 2 6.8 6.2 0 5.2-5.1 6.7-8.9 6.7-3.5 0-7.3-1.2-9.1-4.5l3.3-2.3c.9 1.4 2.6 3.1 6.5 3.1 2.3 0 4-.9 4-2.8 0-1.7-1.4-2.1-4-2.7L298 88c-2.7-.6-6-1.7-6-5.8 0-3.7 3-6.5 8.3-6.5 1.9 0 5.5.3 8.4 4.2l-3.3 2.6zM319.2 97.3h-3.8l-4.8-14.8h3.7l3.1 10.2 3-10.2h3.7l-4.9 14.8zM326.8 80.2v-3.6h3.5v3.6h-3.5zm0 17.1V82.5h3.5v14.8h-3.5zM333.6 97.3v-2.7l8-8.9h-7.2v-3.2h11.9v2.8l-7.8 8.9h7.8v3.1h-12.7zM349 97.3v-2.7l8-8.9h-7.2v-3.2h11.9v2.8l-7.8 8.9h7.8v3.1H349zM367.9 90.6c.1.7.7 3.7 4.2 3.7 2.5 0 3.6-1.5 3.9-2l3 1.7c-1.2 1.6-3.3 3.8-7.2 3.8-4.4 0-7.6-3-7.6-7.9 0-5.3 3.6-7.8 7.4-7.8 5.7 0 7.3 4.5 7.3 8.6h-11zm7-2.6c-.1-.7-.5-3.1-3.3-3.1-2.9 0-3.5 2.5-3.6 3.1h6.9zM385.8 82.5v2.1c1.1-2.3 3.7-2.4 4.4-2.4h.3v3.6c-.7 0-3.6 0-4.4 2.7-.3.8-.3 1.6-.3 2.4v6.3h-3.4V82.5h3.4zM402.2 97.3l-.1-1.2c-1 .8-2.5 1.5-4.3 1.5-3.4 0-5.4-2-5.4-4.5 0-3.2 2.5-4.5 5.3-5 2.2-.4 3.6-.8 4.6-1.1 0-1.1-.3-2.2-2.5-2.2-2.7 0-3 1.5-3 2.2l-3.6-.2c.1-1 .3-4.8 6.5-4.8 4.3 0 6.2 1.6 6.2 4.2v8.6c0 1.1.1 1.4.7 2.4h-4.4zm0-7.4c-.6.3-1.5.6-2.8.8-1.6.2-3.3.6-3.3 2 0 1 .7 1.8 2.4 1.8 1.6 0 3.6-.8 3.6-2.7v-1.9zM292 112.1v-3.6h3.5v3.6H292zm0 17.1v-14.8h3.5v14.8H292zM298.3 114.4h2.2v-5.3h3.6v5.3h3.2v2.5H304v7.3c0 .6 0 1.2.4 1.6.4.4 1.2.4 1.3.4.5 0 1-.1 1.5-.2v3c-.5.1-1.3.2-2.5.2-3.2 0-4.2-1.2-4.2-3.6v-8.8h-2.2v-2.4zM319.1 129.2l-.1-1.2c-1 .8-2.5 1.5-4.3 1.5-3.4 0-5.4-2-5.4-4.5 0-3.2 2.5-4.5 5.3-5 2.2-.4 3.6-.8 4.6-1.1 0-1.1-.3-2.2-2.5-2.2-2.7 0-3 1.5-3 2.2l-3.6-.2c.1-1 .3-4.8 6.5-4.8 4.3 0 6.2 1.6 6.2 4.2v8.6c0 1.1.1 1.4.7 2.4h-4.4zm0-7.4c-.6.3-1.5.6-2.8.8-1.6.2-3.3.6-3.3 2 0 1 .7 1.8 2.4 1.8 1.6 0 3.6-.8 3.6-2.7v-1.9zM327.1 129.2v-20.9h3.6v20.9h-3.6zM335 112.1v-3.6h3.5v3.6H335zm0 17.1v-14.8h3.5v14.8H335zM351.8 129.2l-.1-1.2c-1 .8-2.5 1.5-4.3 1.5-3.4 0-5.4-2-5.4-4.5 0-3.2 2.5-4.5 5.3-5 2.2-.4 3.6-.8 4.6-1.1 0-1.1-.3-2.2-2.5-2.2-2.7 0-3 1.5-3 2.2l-3.6-.2c.1-1 .3-4.8 6.5-4.8 4.3 0 6.2 1.6 6.2 4.2v8.6c0 1.1.1 1.4.7 2.4h-4.4zm0-7.4c-.6.3-1.5.6-2.8.8-1.6.2-3.3.6-3.3 2 0 1 .7 1.8 2.4 1.8 1.6 0 3.6-.8 3.6-2.7v-1.9zM363.2 114.4v1.7c1.3-2 4-2.2 4.6-2.2 3.1 0 4.8 2 4.8 4.9v10.3h-3.5v-8.3c0-1.6-.4-3.5-2.6-3.5-.4 0-1.1.1-1.9.7-1.1.9-1.4 2.1-1.4 4.7v6.4h-3.6v-14.8h3.6zM385.7 129.2l-.1-1.2c-1 .8-2.5 1.5-4.3 1.5-3.4 0-5.4-2-5.4-4.5 0-3.2 2.5-4.5 5.3-5 2.2-.4 3.6-.8 4.6-1.1 0-1.1-.3-2.2-2.5-2.2-2.7 0-3 1.5-3 2.2l-3.6-.2c.1-1 .3-4.8 6.5-4.8 4.3 0 6.2 1.6 6.2 4.2v8.6c0 1.1.1 1.4.7 2.4h-4.4zm0-7.4c-.6.3-1.5.6-2.8.8-1.6.2-3.3.6-3.3 2 0 1 .7 1.8 2.4 1.8 1.6 0 3.6-.8 3.6-2.7v-1.9z"/><script/></svg>